<svg xmlns="http://www.w3.org/2000/svg" width="4644" height="1896" viewBox="0 0 4644 1896" fill="#3d9ad9"><path d="M2602.54 698.47H2149.15V632.913H2602.54V698.47ZM2149.15 582.703V100.469H2089.27V582.703H2041.46V50.2098H2197.04V532.444H2256.86V0.00012207H2011.5H1981.56V632.913H2089.27V723.542V748.68H2662.44V582.703H2149.15Z" fill="#3D9AD9"></path><path d="M404.709 1468.49V1113.49H473.709V1407.99H654.709V1468.49H404.709ZM990.389 1470.99C964.389 1470.99 940.723 1465.99 919.389 1455.99C898.389 1445.99 880.222 1432.49 864.889 1415.49C849.889 1398.15 838.222 1378.82 829.889 1357.49C821.556 1335.82 817.389 1313.65 817.389 1290.99C817.389 1267.32 821.722 1244.82 830.389 1223.49C839.389 1201.82 851.556 1182.65 866.889 1165.99C882.556 1148.99 900.889 1135.65 921.889 1125.99C943.223 1115.99 966.556 1110.99 991.889 1110.99C1017.56 1110.99 1040.89 1116.15 1061.89 1126.49C1083.22 1136.82 1101.39 1150.65 1116.39 1167.99C1131.39 1185.32 1143.06 1204.65 1151.39 1225.99C1159.72 1247.32 1163.89 1269.32 1163.89 1291.99C1163.89 1315.32 1159.56 1337.82 1150.89 1359.49C1142.22 1380.82 1130.06 1399.99 1114.39 1416.99C1099.06 1433.65 1080.72 1446.82 1059.39 1456.49C1038.39 1466.15 1015.39 1470.99 990.389 1470.99ZM887.389 1290.99C887.389 1306.32 889.722 1321.15 894.389 1335.49C899.056 1349.82 905.723 1362.65 914.389 1373.99C923.389 1384.99 934.222 1393.82 946.889 1400.49C959.889 1406.82 974.556 1409.99 990.889 1409.99C1007.56 1409.99 1022.39 1406.65 1035.39 1399.99C1048.39 1392.99 1059.22 1383.82 1067.89 1372.49C1076.56 1360.82 1083.06 1347.99 1087.39 1333.99C1092.06 1319.65 1094.39 1305.32 1094.39 1290.99C1094.39 1275.65 1091.89 1260.99 1086.89 1246.99C1082.22 1232.65 1075.39 1219.99 1066.39 1208.99C1057.72 1197.65 1046.89 1188.82 1033.89 1182.49C1021.22 1175.82 1006.89 1172.49 990.889 1172.49C973.889 1172.49 958.889 1175.99 945.889 1182.99C933.222 1189.65 922.556 1198.65 913.889 1209.99C905.222 1221.32 898.556 1233.99 893.889 1247.99C889.556 1261.99 887.389 1276.32 887.389 1290.99ZM1474.16 1114.49H1538.16L1578.66 1231.99L1619.66 1114.49H1683.16L1622.16 1275.99L1667.16 1388.99L1767.66 1113.49H1842.66L1700.66 1468.49H1641.16L1578.66 1319.49L1516.66 1468.49H1457.16L1315.66 1113.49H1389.66L1490.66 1388.99L1534.66 1275.99L1474.16 1114.49ZM2162.85 1470.99C2139.85 1470.99 2118.02 1466.32 2097.35 1456.99C2077.02 1447.65 2059.02 1434.82 2043.35 1418.49C2028.02 1401.82 2016.02 1382.49 2007.35 1360.49C1998.69 1338.49 1994.35 1314.65 1994.35 1288.99C1994.35 1264.65 1998.69 1241.82 2007.35 1220.49C2016.02 1198.82 2028.19 1179.82 2043.85 1163.49C2059.52 1147.15 2077.85 1134.32 2098.85 1124.99C2119.85 1115.65 2142.69 1110.99 2167.35 1110.99C2200.69 1110.99 2229.19 1118.15 2252.85 1132.49C2276.85 1146.49 2294.85 1165.15 2306.85 1188.49L2255.35 1226.49C2246.35 1208.82 2233.69 1195.32 2217.35 1185.99C2201.35 1176.65 2183.85 1171.99 2164.85 1171.99C2149.85 1171.99 2136.19 1175.15 2123.85 1181.49C2111.52 1187.82 2100.85 1196.49 2091.85 1207.49C2082.85 1218.49 2075.85 1231.15 2070.85 1245.49C2066.19 1259.82 2063.85 1274.99 2063.85 1290.99C2063.85 1307.99 2066.35 1323.65 2071.35 1337.99C2076.69 1352.32 2084.02 1364.82 2093.35 1375.49C2103.02 1386.15 2114.19 1394.65 2126.85 1400.99C2139.52 1406.99 2153.52 1409.99 2168.85 1409.99C2186.85 1409.99 2204.02 1405.32 2220.35 1395.99C2237.02 1386.65 2252.52 1372.99 2266.85 1354.99V1422.99C2237.19 1454.99 2202.52 1470.99 2162.85 1470.99ZM2261.85 1336.49H2190.35V1285.99H2318.85V1468.49H2261.85V1336.49ZM2678.16 1470.99C2649.83 1470.99 2625.66 1466.32 2605.66 1456.99C2585.99 1447.32 2569.99 1434.15 2557.66 1417.49C2545.66 1400.82 2536.83 1381.99 2531.16 1360.99C2525.49 1339.65 2522.66 1317.49 2522.66 1294.49V1113.49H2591.66V1294.49C2591.66 1309.15 2592.99 1323.49 2595.66 1337.49C2598.66 1351.15 2603.49 1363.49 2610.16 1374.49C2616.83 1385.49 2625.66 1394.15 2636.66 1400.49C2647.66 1406.82 2661.33 1409.99 2677.66 1409.99C2694.33 1409.99 2708.16 1406.82 2719.16 1400.49C2730.49 1393.82 2739.33 1384.99 2745.66 1373.99C2752.33 1362.99 2757.16 1350.65 2760.16 1336.99C2763.16 1322.99 2764.66 1308.82 2764.66 1294.49V1113.49H2833.16V1294.49C2833.16 1318.82 2830.16 1341.65 2824.16 1362.99C2818.49 1384.32 2809.33 1403.15 2796.66 1419.49C2784.33 1435.49 2768.33 1448.15 2748.66 1457.49C2728.99 1466.49 2705.49 1470.99 2678.16 1470.99ZM3052.66 1468.49V1113.49H3121.66V1407.99H3302.66V1468.49H3052.66ZM3591.15 1113.49H3661.15L3791.65 1468.49H3720.65L3687.65 1379.99H3563.65L3531.15 1468.49H3460.15L3591.15 1113.49ZM3675.15 1331.49L3626.15 1184.99L3575.15 1331.49H3675.15ZM3980.59 1468.49V1113.49H4137.59C4153.92 1113.49 4168.92 1116.82 4182.59 1123.49C4196.59 1130.15 4208.59 1139.15 4218.59 1150.49C4228.92 1161.82 4236.76 1174.49 4242.09 1188.49C4247.76 1202.49 4250.59 1216.82 4250.59 1231.49C4250.59 1246.49 4247.92 1260.99 4242.59 1274.99C4237.59 1288.65 4230.26 1300.65 4220.59 1310.99C4210.92 1321.32 4199.59 1329.32 4186.59 1334.99L4267.59 1468.49H4191.59L4118.59 1349.49H4049.59V1468.49H3980.59ZM4049.59 1288.99H4136.09C4144.76 1288.99 4152.42 1286.49 4159.09 1281.49C4165.76 1276.15 4171.09 1269.15 4175.09 1260.49C4179.09 1251.82 4181.09 1242.15 4181.09 1231.49C4181.09 1220.15 4178.76 1210.32 4174.09 1201.99C4169.42 1193.32 4163.42 1186.49 4156.09 1181.49C4149.09 1176.49 4141.42 1173.99 4133.09 1173.99H4049.59V1288.99Z" fill="#3D9AD9"></path></svg>